<?xml version="1.0" encoding="UTF-8"?>
<svg id="Layer_2" data-name="Layer 2" xmlns="http://www.w3.org/2000/svg" viewBox="0 0 111.42 111.63">
  <defs>
    <style>
      .cls-1 {
        fill: #fff;
      }
    </style>
  </defs>
  <g id="Layer_1-2" data-name="Layer 1">
    <g id="_16_Ai_Technology" data-name="16 Ai Technology">
      <g id="Group_338" data-name="Group 338">
        <path id="Path_145" data-name="Path 145" class="cls-1" d="M100.7,56.91c.59,2.93,3.44,4.83,6.37,4.24,2.93-.59,4.83-3.44,4.24-6.37-.59-2.93-3.44-4.83-6.37-4.24-2.12.43-3.78,2.07-4.22,4.18h-13.84v-4.81h14.81c.6,0,1.09-.49,1.09-1.09v-9.15c2.9-.6,4.77-3.44,4.16-6.34-.6-2.9-3.44-4.77-6.34-4.16-2.9.6-4.77,3.44-4.16,6.34.43,2.09,2.07,3.73,4.16,4.16v8.05h-13.72v-14.3c0-4.88-3.95-8.84-8.83-8.86h-14.26v-13.77h8.03c.6,2.91,3.45,4.78,6.37,4.18,2.91-.6,4.78-3.45,4.18-6.37-.6-2.91-3.45-4.78-6.37-4.18-2.1.44-3.74,2.08-4.18,4.18h-9.12c-.6,0-1.09.49-1.09,1.09v14.86h-4.8v-13.88c2.92-.59,4.81-3.43,4.22-6.35-.59-2.92-3.43-4.81-6.35-4.22-2.92.59-4.81,3.43-4.22,6.35.42,2.11,2.06,3.77,4.17,4.21v13.89h-4.8v-14.86c0-.6-.49-1.09-1.09-1.09h-9.11c-.6-2.91-3.45-4.78-6.36-4.18-2.91.6-4.78,3.45-4.18,6.36.6,2.91,3.45,4.78,6.36,4.18,2.1-.44,3.74-2.08,4.18-4.18h8.03v13.77h-14.26c-4.88.02-8.83,3.98-8.83,8.86v14.3h-13.72v-8.05c2.9-.6,4.77-3.44,4.16-6.34s-3.44-4.77-6.34-4.16c-2.9.6-4.77,3.44-4.16,6.34.43,2.09,2.07,3.73,4.16,4.16v9.15c0,.6.49,1.09,1.09,1.09h14.81v4.81h-13.83c-.59-2.93-3.44-4.83-6.37-4.24-2.93.59-4.83,3.44-4.24,6.37.59,2.93,3.44,4.83,6.37,4.24,2.12-.43,3.78-2.07,4.22-4.18h13.84v4.82h-14.81c-.6,0-1.09.49-1.09,1.09v9.15c-2.9.6-4.77,3.44-4.16,6.34.6,2.9,3.44,4.77,6.34,4.16s4.77-3.44,4.16-6.34c-.43-2.09-2.07-3.73-4.16-4.16v-8.05h13.72v14.3c0,4.88,3.95,8.84,8.83,8.86h14.26v13.76h-8.02c-.6-2.91-3.45-4.78-6.37-4.18s-4.78,3.45-4.18,6.37,3.45,4.78,6.37,4.18c2.1-.44,3.74-2.08,4.18-4.18h9.12c.6,0,1.09-.49,1.09-1.09v-14.86h4.8v13.87c-2.92.59-4.81,3.43-4.22,6.35.59,2.92,3.43,4.81,6.35,4.22,2.92-.59,4.81-3.43,4.22-6.35-.42-2.11-2.06-3.77-4.17-4.21v-13.89h4.8v14.86c0,.6.49,1.09,1.09,1.09h9.12c.6,2.91,3.45,4.78,6.37,4.18,2.91-.6,4.78-3.45,4.18-6.37s-3.45-4.78-6.37-4.18c-2.1.44-3.74,2.08-4.18,4.18h-8.03v-13.77h14.26c4.88-.02,8.83-3.98,8.83-8.86v-14.3h13.72v8.05c-2.9.6-4.77,3.44-4.16,6.34.6,2.9,3.44,4.77,6.34,4.16s4.77-3.44,4.16-6.34c-.43-2.09-2.07-3.73-4.16-4.16v-9.15c0-.6-.49-1.09-1.09-1.09h-14.81v-4.81h13.83ZM84.69,78.21c0,3.68-2.98,6.66-6.65,6.68h-44.65c-3.68-.01-6.65-3-6.65-6.68v-44.8c0-3.68,2.98-6.66,6.65-6.67h44.65c3.68.01,6.65,3,6.65,6.67v44.79Z"/>
        <path id="Path_146" data-name="Path 146" class="cls-1" d="M74.4,35.96h-37.38c-.61,0-1.1.49-1.1,1.1h0v37.51c0,.6.5,1.09,1.1,1.09h37.39c.6,0,1.09-.49,1.09-1.09v-37.51c0-.61-.49-1.1-1.1-1.1ZM73.31,73.47h-35.21v-35.32h35.21v35.32Z"/>
        <path id="Path_147" data-name="Path 147" class="cls-1" d="M51.28,45.49c-3.15,0-5.7,2.56-5.69,5.71v13.85c-.02.6.46,1.11,1.06,1.12.6.02,1.11-.46,1.12-1.06,0-.02,0-.04,0-.07v-8.14h7.02v8.14c-.02.6.46,1.11,1.06,1.12.6.02,1.11-.46,1.12-1.06,0-.02,0-.04,0-.07v-13.85c0-3.15-2.54-5.7-5.69-5.71ZM54.79,54.72h-7.02v-3.52c0-1.94,1.57-3.51,3.51-3.51s3.51,1.57,3.51,3.51v3.52Z"/>
        <path id="Path_148" data-name="Path 148" class="cls-1" d="M64.74,66.15c.6,0,1.09-.49,1.09-1.09v-18.47c.02-.6-.46-1.11-1.06-1.12-.6-.02-1.11.46-1.12,1.06,0,.02,0,.04,0,.07v18.47c0,.6.49,1.09,1.09,1.1h0Z"/>
      </g>
    </g>
  </g>
</svg>