<?xml version="1.0" encoding="UTF-8"?>
<svg id="Layer_2" data-name="Layer 2" xmlns="http://www.w3.org/2000/svg" viewBox="0 0 111.04 111.4">
  <defs>
    <style>
      .cls-1 {
        fill: #fff;
      }
    </style>
  </defs>
  <g id="Layer_1-2" data-name="Layer 1">
    <g id="energy_efficiency_intelligent_energy_control" data-name="energy efficiency, intelligent energy control">
      <g id="exchange_of_ideas" data-name="exchange of ideas">
        <g id="Group_343" data-name="Group 343">
          <g id="Group_339" data-name="Group 339">
            <path id="Path_151" data-name="Path 151" class="cls-1" d="M98.88,102.12c-.49,0-.96-.19-1.31-.54l-5.81-5.84c-.72-.72-.73-1.9,0-2.62.72-.72,1.9-.73,2.62,0l3.51,3.52,4.28-17.16-17.11,4.29,3.51,3.52c.72.72.73,1.9,0,2.62-.72.72-1.9.73-2.62,0l-5.82-5.84c-.72-.73-.72-1.9,0-2.63.24-.24.53-.4.86-.49l23.27-5.83c.99-.25,2,.35,2.24,1.34.07.3.07.61,0,.91l-5.81,23.34c-.16.65-.66,1.16-1.3,1.34-.16.04-.33.07-.49.07h0Z"/>
            <path id="Path_152" data-name="Path 152" class="cls-1" d="M55.52,103.97c-1.03-.02-1.84-.87-1.81-1.9.02-.99.82-1.79,1.81-1.81,11.51.02,22.57-4.46,30.82-12.47.74-.71,1.91-.69,2.62.05.71.74.69,1.91-.05,2.62h0c-8.94,8.69-20.92,13.53-33.39,13.51Z"/>
            <path id="Path_153" data-name="Path 153" class="cls-1" d="M55.52,111.4C24.82,111.31-.01,86.39,0,55.7,0,54.41.04,53.13.13,51.85c.1-1.01.96-1.76,1.97-1.73,1.02.07,1.79.95,1.72,1.97,0,0,0,0,0,0-.08,1.19-.12,2.38-.12,3.59-.01,28.65,23.17,51.91,51.82,51.99,13.32.02,26.13-5.12,35.74-14.34.77-.68,1.94-.61,2.62.16.65.73.62,1.83-.06,2.53-10.3,9.88-24.02,15.39-38.29,15.37Z"/>
          </g>
          <g id="transfer">
            <g id="Group_340" data-name="Group 340">
              <path id="Path_154" data-name="Path 154" class="cls-1" d="M6.34,36.33c-1.02,0-1.85-.82-1.86-1.84,0-.16.02-.31.06-.46l5.82-23.34c.24-.99,1.25-1.6,2.24-1.35.33.08.63.25.87.49l5.81,5.84c.72.72.73,1.9,0,2.62s-1.9.73-2.62,0l-3.5-3.52-4.28,17.15,17.11-4.29-3.51-3.52c-.72-.72-.73-1.9,0-2.62.72-.72,1.9-.73,2.62,0l5.82,5.84c.72.73.72,1.91,0,2.63-.24.24-.53.4-.86.48l-23.27,5.84c-.15.04-.3.06-.45.06h0Z"/>
              <path id="Path_155" data-name="Path 155" class="cls-1" d="M23.41,24.13c-.5,0-.98-.2-1.33-.57-.71-.74-.69-1.91.05-2.62,8.94-8.69,20.92-13.54,33.39-13.51,1.03.02,1.84.87,1.81,1.9-.02.99-.82,1.79-1.81,1.81-11.51-.02-22.57,4.46-30.82,12.47-.34.33-.81.52-1.28.52Z"/>
              <path id="Path_156" data-name="Path 156" class="cls-1" d="M109.06,61.26h-.13c-1.02-.07-1.79-.96-1.72-1.98.09-1.18.13-2.38.13-3.58.11-28.6-22.98-51.87-51.58-51.98-13.39-.05-26.28,5.09-35.97,14.34-.75.7-1.92.66-2.62-.09-.69-.74-.66-1.9.07-2.6,22.16-21.17,57.28-20.37,78.44,1.79,9.91,10.38,15.42,24.19,15.37,38.54,0,1.28-.04,2.57-.13,3.83-.07.97-.88,1.73-1.85,1.73Z"/>
            </g>
          </g>
          <g id="transaction_history_clock" data-name="transaction history, clock">
            <g id="chargeback_claim_chargeback_money" data-name="chargeback claim, chargeback, money">
              <g id="Group_341" data-name="Group 341">
                <ellipse id="Ellipse_29" data-name="Ellipse 29" class="cls-1" cx="48.12" cy="102.11" rx="1.85" ry="1.86"/>
              </g>
            </g>
          </g>
          <g id="transaction_history_clock-2" data-name="transaction history, clock">
            <g id="chargeback_claim_chargeback_money-2" data-name="chargeback claim, chargeback, money">
              <g id="Group_342" data-name="Group 342">
                <ellipse id="Ellipse_30" data-name="Ellipse 30" class="cls-1" cx="62.92" cy="9.28" rx="1.85" ry="1.86"/>
              </g>
            </g>
          </g>
        </g>
      </g>
      <path id="Path_157" data-name="Path 157" class="cls-1" d="M47.41,92.83c-1.02,0-1.85-.83-1.85-1.85,0-.13.01-.26.04-.38l4.94-23.76h-17.23c-1.03,0-1.85-.84-1.85-1.87,0-.37.11-.73.32-1.03l30.32-44.56c.57-.84,1.73-1.06,2.57-.49.62.42.93,1.18.77,1.91l-5.41,25.99c-.21,1-1.19,1.64-2.19,1.43s-1.64-1.19-1.43-2.19h0l3.51-16.87-23.11,33.96h16c1.02,0,1.85.83,1.85,1.86,0,.13-.01.25-.04.38l-3.51,16.87,25.08-36.86c.58-.84,1.73-1.06,2.58-.48.84.58,1.06,1.73.48,2.58l-30.32,44.56c-.34.51-.92.81-1.53.81Z"/>
    </g>
  </g>
</svg>