<?xml version="1.0" encoding="UTF-8"?>
<svg id="Layer_2" data-name="Layer 2" xmlns="http://www.w3.org/2000/svg" xmlns:xlink="http://www.w3.org/1999/xlink" viewBox="0 0 117.32 147.11">
  <defs>
    <style>
      .cls-1 {
        fill: #fff;
      }

      .cls-2 {
        fill: none;
      }

      .cls-3 {
        clip-path: url(#clippath);
      }
    </style>
    <clipPath id="clippath">
      <rect class="cls-2" x="0" y="0" width="117.31" height="147.1"/>
    </clipPath>
  </defs>
  <g id="Layer_1-2" data-name="Layer 1">
    <g id="Group_364" data-name="Group 364">
      <g class="cls-3">
        <g id="Group_363" data-name="Group 363">
          <path id="Path_161" data-name="Path 161" class="cls-1" d="M86.92,51.95h-6.5c-.4-1.26-.9-2.49-1.51-3.66l4.6-4.61c1.19-1.19,1.19-3.12,0-4.32l-5.41-5.43c-1.19-1.19-3.11-1.19-4.3,0l-4.6,4.61c-1.17-.61-2.39-1.12-3.65-1.52v-6.53c0-1.68-1.36-3.05-3.04-3.05h-7.65c-1.68,0-3.05,1.37-3.04,3.05v6.53c-1.26.4-2.48.91-3.65,1.52l-4.6-4.61c-1.19-1.19-3.11-1.19-4.3,0l-5.41,5.43c-1.19,1.19-1.19,3.12,0,4.32l4.6,4.61c-.61,1.17-1.12,2.4-1.51,3.66h-6.52c-1.68,0-3.05,1.37-3.04,3.05v7.68c0,1.68,1.36,3.05,3.04,3.05h6.5c.4,1.26.9,2.49,1.51,3.66l-4.6,4.61c-1.19,1.19-1.19,3.12,0,4.32l5.41,5.43c1.19,1.19,3.11,1.19,4.3,0,0,0,0,0,0,0l4.6-4.61c1.17.61,2.39,1.12,3.65,1.52v6.53c0,1.68,1.36,3.05,3.04,3.05h7.65c1.68,0,3.05-1.37,3.04-3.05v-6.53c1.26-.4,2.48-.91,3.65-1.52l4.6,4.61c1.19,1.19,3.11,1.19,4.3,0h0s5.41-5.43,5.41-5.43c1.19-1.19,1.19-3.12,0-4.32l-4.6-4.61c.61-1.17,1.12-2.4,1.51-3.66h6.51c1.68,0,3.04-1.37,3.04-3.05v-7.68c0-1.68-1.36-3.05-3.04-3.05M85.66,61.42h-6.89c-1,0-1.87.69-2.09,1.66-.46,1.96-1.23,3.83-2.29,5.54-.53.85-.4,1.95.31,2.66l4.87,4.89-3.64,3.65-4.87-4.89c-.7-.71-1.8-.84-2.65-.31-1.7,1.06-3.57,1.83-5.52,2.29-.97.23-1.66,1.1-1.66,2.1v6.91h-5.15v-6.91c0-1-.69-1.87-1.66-2.1-1.95-.46-3.82-1.23-5.52-2.29-.85-.53-1.95-.4-2.65.31l-4.87,4.89-3.64-3.65,4.87-4.89c.71-.71.83-1.81.31-2.66-1.06-1.71-1.83-3.58-2.29-5.54-.23-.97-1.09-1.66-2.09-1.66h-6.88v-5.17h6.89c1,0,1.87-.69,2.09-1.66.46-1.96,1.23-3.83,2.29-5.54.53-.85.4-1.95-.31-2.66l-4.87-4.89,3.64-3.65,4.87,4.89c.7.71,1.8.84,2.65.31,1.7-1.06,3.57-1.83,5.52-2.29.97-.23,1.66-1.1,1.66-2.1v-6.9h5.15v6.91c0,1,.69,1.87,1.66,2.1,1.95.46,3.82,1.23,5.52,2.29.85.53,1.95.4,2.65-.31l4.87-4.89,3.64,3.65-4.87,4.89c-.71.71-.83,1.81-.31,2.66,1.06,1.71,1.83,3.58,2.29,5.54.23.97,1.09,1.66,2.09,1.66h6.89v5.16Z"/>
          <path id="Path_162" data-name="Path 162" class="cls-1" d="M58.66,47.3c-6.38-.02-11.56,5.13-11.58,11.51-.02,6.38,5.13,11.56,11.51,11.58,6.38.02,11.56-5.13,11.58-11.51,0-.01,0-.02,0-.04,0-6.36-5.14-11.53-11.51-11.54M58.66,66.08c-4,.01-7.24-3.22-7.26-7.21-.01-4,3.22-7.24,7.21-7.26,4-.01,7.24,3.22,7.26,7.21,0,0,0,.02,0,.02,0,3.99-3.22,7.22-7.21,7.23"/>
          <path id="Path_163" data-name="Path 163" class="cls-1" d="M9.28,56.69H2.15C.96,56.69,0,57.66,0,58.85c0,1.19.96,2.15,2.15,2.15h7.13c1.19,0,2.15-.97,2.15-2.16,0-1.19-.96-2.15-2.15-2.15"/>
          <path id="Path_164" data-name="Path 164" class="cls-1" d="M115.16,56.69h-7.13c-1.19,0-2.15.97-2.15,2.16,0,1.19.96,2.15,2.15,2.15h7.13c1.19,0,2.15-.97,2.15-2.16,0-1.19-.96-2.15-2.15-2.15"/>
          <path id="Path_165" data-name="Path 165" class="cls-1" d="M25.26,92.35c-.83-.84-2.19-.84-3.03,0,0,0,0,0,0,0l-5.04,5.05c-.84.84-.84,2.2,0,3.04.84.84,2.2.84,3.04,0l5.04-5.05c.84-.84.84-2.2,0-3.05"/>
          <path id="Path_166" data-name="Path 166" class="cls-1" d="M100.13,17.23c-.83-.84-2.19-.84-3.03,0,0,0,0,0,0,0l-5.04,5.06c-.86.82-.9,2.18-.08,3.04.82.86,2.18.9,3.04.08.03-.02.05-.05.07-.07l5.04-5.06c.84-.84.84-2.2,0-3.05"/>
          <path id="Path_167" data-name="Path 167" class="cls-1" d="M58.66,0c-1.19,0-2.15.97-2.15,2.15h0v7.15c0,1.19.96,2.15,2.15,2.15s2.15-.96,2.15-2.15V2.16C60.81.97,59.85,0,58.66,0c0,0,0,0,0,0"/>
          <path id="Path_168" data-name="Path 168" class="cls-1" d="M100.13,97.4l-5.04-5.05c-.86-.82-2.22-.78-3.04.08-.79.83-.79,2.14,0,2.97l5.04,5.05c.82.86,2.18.89,3.04.07s.89-2.18.07-3.04c-.02-.03-.05-.05-.07-.07"/>
          <path id="Path_169" data-name="Path 169" class="cls-1" d="M25.26,22.29l-5.04-5.06c-.84-.84-2.2-.84-3.04,0-.84.84-.84,2.2,0,3.04l5.04,5.06c.84.84,2.2.84,3.04,0s.84-2.2,0-3.04"/>
          <path id="Path_170" data-name="Path 170" class="cls-1" d="M101.51,53.56c-2.32-19.77-17.83-35.4-37.58-37.88-1.18-.13-2.24.73-2.37,1.92-.12,1.16.7,2.2,1.85,2.36,17.81,2.16,31.81,16.27,33.83,34.1.13,1.08,1.04,1.9,2.13,1.9.08,0,.17,0,.25-.01,1.18-.14,2.02-1.21,1.88-2.39"/>
          <path id="Path_171" data-name="Path 171" class="cls-1" d="M99.6,61.73c-1.18-.15-2.25.68-2.4,1.86,0,0,0,0,0,0-1.45,11.58-8.02,21.89-17.91,28.09-4.25,2.65-6.84,7.32-6.83,12.33v8.87h-27.6v-9.07c0-4.87-2.5-9.4-6.62-12-18.31-11.37-23.93-35.42-12.57-53.73,6.2-9.99,16.57-16.64,28.23-18.12,1.18-.16,2-1.25,1.84-2.43-.16-1.15-1.21-1.97-2.36-1.85-23.74,3.01-40.55,24.69-37.54,48.43,1.64,12.96,9.04,24.49,20.14,31.37,2.86,1.81,4.59,4.96,4.58,8.34v9.38c-2.25.79-3.76,2.91-3.76,5.29v3.07c0,1.25.42,2.46,1.19,3.45-.77.98-1.19,2.2-1.19,3.45v3.07c0,3.09,2.5,5.59,5.58,5.6h6.75v4.87c0,2.81,2.27,5.09,5.08,5.1h8.88c2.81,0,5.08-2.29,5.08-5.1v-4.87h6.75c3.09,0,5.59-2.51,5.58-5.6v-3.07c0-1.25-.42-2.46-1.19-3.45.77-.98,1.19-2.2,1.19-3.45v-3.07c0-2.38-1.51-4.5-3.76-5.29v-9.19c0-3.53,1.82-6.81,4.82-8.68,10.98-6.88,18.28-18.34,19.89-31.2.15-1.18-.68-2.26-1.86-2.41,0,0,0,0,0,0M63.89,142c0,.43-.35.78-.78.79h-8.88c-.43,0-.78-.36-.78-.79v-4.87h10.44v4.87ZM76.22,131.53c0,.71-.58,1.28-1.29,1.29h-32.55c-.71-.01-1.28-.58-1.29-1.29v-3.07c0-.71.58-1.28,1.29-1.29h32.54c.71.01,1.28.58,1.29,1.29v3.07ZM76.22,121.56c0,.71-.58,1.28-1.29,1.29h-32.55c-.71-.01-1.28-.58-1.29-1.29v-3.07c0-.71.58-1.28,1.29-1.29h32.54c.71.01,1.28.58,1.29,1.29v3.07Z"/>
        </g>
      </g>
    </g>
  </g>
</svg>