<?xml version="1.0" encoding="UTF-8"?>
<svg id="Layer_2" data-name="Layer 2" xmlns="http://www.w3.org/2000/svg" xmlns:xlink="http://www.w3.org/1999/xlink" viewBox="0 0 98.41 102.66">
  <defs>
    <style>
      .cls-1 {
        fill: #fff;
      }

      .cls-2 {
        fill: none;
      }

      .cls-3 {
        clip-path: url(#clippath);
      }
    </style>
    <clipPath id="clippath">
      <rect class="cls-2" x="0" width="98.41" height="102.65"/>
    </clipPath>
  </defs>
  <g id="Layer_1-2" data-name="Layer 1">
    <g id="Group_366" data-name="Group 366">
      <g class="cls-3">
        <g id="Group_365" data-name="Group 365">
          <path id="Path_172" data-name="Path 172" class="cls-1" d="M79.25,102.66H7.13C3.19,102.65,0,99.44,0,95.5v-47.63c0-3.94,3.19-7.15,7.13-7.16h5.95c.84.02,1.51.72,1.49,1.56-.02.81-.67,1.46-1.49,1.49h-5.95c-2.26,0-4.1,1.84-4.09,4.11v47.63c0,2.26,1.83,4.1,4.09,4.11h72.12c2.26,0,4.1-1.84,4.09-4.11v-58.89c0-2.26-1.83-4.1-4.09-4.11h-25.4c-2.26,0-4.1,1.84-4.09,4.11,0,3.94-3.19,7.15-7.13,7.16h-23.46c-.84-.02-1.51-.72-1.49-1.56.02-.81.67-1.46,1.49-1.49h23.46c2.26,0,4.1-1.84,4.09-4.11,0-3.94,3.19-7.14,7.13-7.15h25.41c3.94.01,7.13,3.21,7.13,7.15v58.89c0,3.94-3.19,7.15-7.13,7.16"/>
          <path id="Path_173" data-name="Path 173" class="cls-1" d="M91.28,102.65h-12.03c-.84-.02-1.51-.72-1.49-1.56.02-.81.67-1.47,1.49-1.49h12.03c2.26,0,4.1-1.84,4.09-4.11v-58.89c0-2.26-1.83-4.1-4.09-4.11h-.95c-.84-.02-1.51-.72-1.49-1.56.02-.81.67-1.46,1.49-1.49h.95c3.94.01,7.13,3.21,7.13,7.15v58.89c0,3.94-3.19,7.14-7.13,7.15"/>
          <path id="Path_174" data-name="Path 174" class="cls-1" d="M10,43.76c-.84,0-1.52-.68-1.52-1.52h0v-25.59c0-.84.68-1.52,1.52-1.53h60.78c.84,0,1.52.68,1.52,1.52h0v14.33c.02.84-.64,1.54-1.48,1.56s-1.54-.64-1.56-1.48c0-.03,0-.05,0-.08v-12.81H11.51v24.07c0,.84-.68,1.52-1.52,1.53h0"/>
          <path id="Path_175" data-name="Path 175" class="cls-1" d="M80.56,32.65c-.84,0-1.52-.68-1.52-1.52h0V3.05H21.29v13.59c.02.84-.64,1.54-1.48,1.56s-1.54-.64-1.56-1.48c0-.03,0-.05,0-.08V1.52C18.25.68,18.93,0,19.77,0c0,0,0,0,0,0h60.78c.84,0,1.52.68,1.52,1.52h0v29.61c0,.84-.68,1.52-1.52,1.52h0"/>
          <path id="Path_176" data-name="Path 176" class="cls-1" d="M90.34,96.09h-5.47c-.84-.02-1.51-.72-1.49-1.56.02-.81.67-1.47,1.49-1.49h3.95v-38.9c-.02-.84.64-1.54,1.48-1.56.84-.02,1.54.64,1.56,1.48,0,.03,0,.05,0,.08v40.42c0,.84-.68,1.52-1.52,1.52h0"/>
          <path id="Path_177" data-name="Path 177" class="cls-1" d="M90.34,49.57c-.84,0-1.52-.68-1.52-1.52h0v-29.88h-8.26c-.84-.02-1.51-.72-1.49-1.56.02-.81.67-1.46,1.49-1.49h9.78c.84,0,1.52.68,1.52,1.52h0v31.4c0,.84-.68,1.52-1.52,1.52h0"/>
          <path id="Path_178" data-name="Path 178" class="cls-1" d="M55.99,26.1H19.53c-.84-.02-1.51-.72-1.49-1.56.02-.81.67-1.46,1.49-1.49h36.47c.84.02,1.51.72,1.49,1.56-.02.81-.67,1.46-1.49,1.49"/>
          <path id="Path_179" data-name="Path 179" class="cls-1" d="M40.39,33.72h-20.86c-.84-.02-1.51-.72-1.49-1.56.02-.81.67-1.46,1.49-1.49h20.86c.84.02,1.51.72,1.49,1.56-.02.81-.67,1.46-1.49,1.49"/>
          <path id="Path_180" data-name="Path 180" class="cls-1" d="M77.57,63.29h-31.61c-.84,0-1.52-.68-1.52-1.52h0v-11.28c0-.84.68-1.52,1.52-1.52h31.61c.84,0,1.52.68,1.52,1.52h0v11.28c0,.84-.68,1.52-1.52,1.52h0M47.48,60.25h28.57v-8.23h-28.57v8.23Z"/>
        </g>
      </g>
    </g>
  </g>
</svg>