<?xml version="1.0" encoding="UTF-8"?>
<svg id="Layer_2" data-name="Layer 2" xmlns="http://www.w3.org/2000/svg" viewBox="0 0 103.81 113.47">
  <defs>
    <style>
      .cls-1 {
        fill: #fff;
        fill-rule: evenodd;
      }
    </style>
  </defs>
  <g id="Layer_1-2" data-name="Layer 1">
    <path id="stack" class="cls-1" d="M29.49,110.03c-1.81,0-3.27-1.46-3.27-3.27s1.46-3.27,3.27-3.27c1.81,0,3.27,1.46,3.27,3.27,0,1.8-1.46,3.27-3.26,3.27h0ZM29.49,3.43c1.81,0,3.28,1.45,3.28,3.25,0,1.81-1.45,3.28-3.25,3.28-1.81,0-3.28-1.45-3.28-3.25,0,0,0,0,0-.01,0-1.8,1.46-3.25,3.25-3.26h0ZM29.49,100.05c-1.79,0-3.51.73-4.76,2.01l-21.3-12.15V23.55l21.3-12.15c2.6,2.63,6.84,2.65,9.46.05,2.63-2.6,2.65-6.84.05-9.46C32.98.72,31.27,0,29.49,0c-3.71.02-6.7,3.03-6.69,6.74,0,.56.08,1.13.22,1.67L.87,21.05C.33,21.36,0,21.93,0,22.55v68.37c0,.62.33,1.19.87,1.5l22.15,12.64c-.93,3.57,1.21,7.22,4.78,8.15,3.57.93,7.22-1.21,8.15-4.78s-1.21-7.22-4.78-8.15c-.55-.14-1.12-.22-1.69-.22v-.02ZM74.31,110.03c-1.81,0-3.28-1.45-3.28-3.25,0-1.81,1.45-3.28,3.25-3.28s3.28,1.45,3.28,3.25c0,0,0,0,0,.01,0,1.8-1.45,3.27-3.26,3.28h0ZM74.31,9.97c-1.81,0-3.28-1.45-3.28-3.25,0-1.81,1.45-3.28,3.25-3.28,1.81,0,3.28,1.45,3.28,3.25,0,0,0,0,0,.01,0,1.8-1.45,3.27-3.26,3.27h0ZM102.93,21.05l-22.15-12.63c.93-3.58-1.21-7.23-4.78-8.17-3.58-.93-7.23,1.21-8.17,4.78-.93,3.58,1.21,7.23,4.78,8.17,2.32.61,4.79-.08,6.47-1.79l21.3,12.15v66.37l-21.3,12.15c-2.59-2.65-6.84-2.7-9.49-.11s-2.7,6.84-.11,9.49c2.59,2.65,6.84,2.7,9.49.11,1.73-1.69,2.41-4.17,1.8-6.5l22.15-12.64c.55-.3.88-.88.88-1.5V22.55c0-.62-.34-1.2-.88-1.5h0ZM51.9,90.82l-34.14-16.92,13.46-6.67,19.92,9.87c.48.24,1.04.24,1.52,0l19.91-9.87,13.46,6.67-34.13,16.92ZM17.77,56.73l13.46-6.67,19.92,9.87c.48.24,1.04.24,1.52,0l19.91-9.87,13.46,6.67-34.13,16.91-34.14-16.91ZM17.77,39.57l34.14-16.91,34.13,16.91-34.13,16.91-34.14-16.91ZM91.61,73.9c0,.65-.37,1.25-.96,1.54l-37.99,18.83c-.48.24-1.04.24-1.52,0l-38.01-18.83c-.85-.43-1.19-1.46-.77-2.32.17-.33.44-.6.77-.77l14.21-7.04-14.21-7.04c-.85-.43-1.2-1.47-.77-2.32.17-.33.44-.6.77-.77l14.21-7.04-14.21-7.04c-.85-.43-1.2-1.46-.77-2.31.17-.33.44-.6.77-.77l38.01-18.83c.48-.24,1.04-.24,1.52,0l37.99,18.83c.85.43,1.2,1.46.77,2.31-.17.33-.44.6-.77.77l-14.21,7.04,14.21,7.04c.85.43,1.2,1.47.77,2.32-.17.33-.44.6-.77.77l-14.21,7.04,14.21,7.04c.58.29.95.89.96,1.54h0Z"/>
  </g>
</svg>