<?xml version="1.0" encoding="UTF-8"?>
<svg id="Layer_2" data-name="Layer 2" xmlns="http://www.w3.org/2000/svg" viewBox="0 0 122.46 122.85">
  <defs>
    <style>
      .cls-1 {
        fill: #fff;
      }
    </style>
  </defs>
  <g id="Layer_1-2" data-name="Layer 1">
    <g id="technology">
      <g id="Page-1">
        <g id="_019---Technology-Engineering" data-name="019---Technology-Engineering">
          <path id="Shape" class="cls-1" d="M5.07,50.68c-2.51.41-4.44,2.42-4.76,4.94-.42,3.82-.42,7.68-.01,11.51.28,2.56,2.23,4.62,4.77,5.05l6.49,1.07c1.25,5.33,3.35,10.41,6.23,15.06l-3.82,5.36c-1.52,2.07-1.49,4.91.09,6.94,1.22,1.49,2.51,2.92,3.88,4.28,1.25,1.26,2.64,2.53,4.3,3.93,2.01,1.55,4.8,1.58,6.84.08l5.37-3.86c4.63,2.89,9.69,5,15,6.25l1.06,6.53c.4,2.51,2.41,4.45,4.93,4.77,1.16.13,2.35.22,3.53.27h.17c1.06,0,2.09-.41,2.86-1.15.8-.77,1.25-1.83,1.25-2.94v-16.41c0-2.19-1.73-3.99-3.92-4.08-20.34-1.13-35.92-18.53-34.79-38.88,1.04-18.77,16.03-33.75,34.79-34.79,2.19-.1,3.92-1.91,3.92-4.1V4.1c0-1.11-.45-2.18-1.25-2.95-.8-.79-1.89-1.2-3.01-1.15-1.19.05-2.37.13-3.57.26-2.52.33-4.52,2.29-4.9,4.8l-1.06,6.52c-5.31,1.25-10.37,3.37-15,6.25l-5.36-3.85c-2.06-1.51-4.88-1.47-6.89.11-1.48,1.22-2.9,2.51-4.24,3.87-1.39,1.36-2.7,2.8-3.91,4.32-1.56,2.02-1.6,4.82-.1,6.89l3.85,5.39c-2.88,4.65-4.98,9.74-6.22,15.06l-6.5,1.06ZM15.26,51.82c1.19-5.78,3.46-11.28,6.71-16.21.46-.71.45-1.63-.05-2.32l-4.66-6.52c-.43-.57-.44-1.35-.03-1.94,1.12-1.39,2.32-2.71,3.59-3.96,1.24-1.26,2.54-2.45,3.9-3.57.58-.45,1.4-.45,1.98,0l6.49,4.67c.69.49,1.61.51,2.31.04,4.9-3.25,10.39-5.54,16.15-6.73.83-.17,1.46-.84,1.6-1.68l1.28-7.89c.09-.71.63-1.27,1.33-1.39,1.08-.11,2.17-.19,3.3-.24l-.04,16.4c-22.6,1.23-39.92,20.55-38.69,43.15,1.14,20.9,17.84,37.58,38.74,38.7l-.03,16.41c-1.1-.05-2.18-.13-3.25-.25-.71-.1-1.26-.66-1.35-1.37l-1.29-7.89c-.14-.84-.77-1.5-1.6-1.68-5.76-1.19-11.25-3.48-16.15-6.73-.71-.47-1.63-.45-2.31.04l-6.5,4.68c-.55.43-1.32.45-1.9.05-1.5-1.27-2.8-2.46-3.97-3.63-1.25-1.24-2.44-2.54-3.56-3.91-.44-.59-.44-1.4,0-1.99l4.65-6.51c.49-.69.51-1.61.05-2.32-3.24-4.93-5.52-10.43-6.71-16.21-.17-.83-.83-1.46-1.66-1.61l-7.86-1.29c-.73-.12-1.29-.72-1.37-1.46-.38-3.52-.38-7.08.01-10.6.1-.71.65-1.26,1.36-1.36l7.86-1.29c.84-.14,1.5-.78,1.67-1.62h0Z"/>
          <path id="Shape-2" data-name="Shape" class="cls-1" d="M116.33,55.29c-2.59.01-4.89,1.66-5.75,4.1h-47.32v-6.15h32.65c3.39,0,6.13-2.75,6.12-6.14h0v-10.62c3.19-1.13,4.86-4.63,3.74-7.82s-4.63-4.86-7.82-3.74-4.86,4.63-3.74,7.82c.62,1.75,1.99,3.12,3.74,3.74v10.61c0,1.13-.91,2.05-2.04,2.05h-32.65v-6.14h22.45c1.13,0,2.05-.92,2.05-2.05s-.92-2.05-2.05-2.05h-22.45v-4.09h12.24c3.39,0,6.13-2.76,6.12-6.14h0v-12.66c3.19-1.13,4.86-4.63,3.74-7.82-1.13-3.19-4.63-4.86-7.82-3.74-3.19,1.13-4.86,4.63-3.74,7.82.62,1.75,1.99,3.12,3.74,3.74v12.66c0,1.13-.91,2.05-2.04,2.05h-12.79c-.7-1.31-2.1-2.08-3.58-1.98-18.06,1.2-31.72,16.82-30.52,34.87,1.09,16.38,14.14,29.42,30.52,30.52h.24c1.4.01,2.68-.75,3.34-1.98h12.78c1.13,0,2.04.92,2.04,2.05h0v12.66c-3.19,1.13-4.86,4.63-3.74,7.82s4.63,4.86,7.82,3.74,4.86-4.63,3.74-7.82c-.62-1.75-1.99-3.12-3.74-3.74v-12.66c0-3.39-2.74-6.14-6.12-6.14h-12.25v-4.1h22.45c1.13,0,2.05-.92,2.05-2.05s-.92-2.05-2.05-2.05h-22.45v-6.13h32.65c1.13,0,2.04.92,2.04,2.05h0v10.61c-3.19,1.13-4.86,4.63-3.74,7.82s4.63,4.86,7.82,3.74,4.86-4.63,3.74-7.82c-.62-1.75-1.99-3.12-3.74-3.74v-10.61c0-3.39-2.74-6.14-6.12-6.14h-32.65v-6.14h47.32c1.15,3.18,4.65,4.83,7.83,3.68,3.18-1.15,4.83-4.65,3.68-7.83-.88-2.43-3.18-4.04-5.76-4.04ZM100,28.67c1.13,0,2.05.91,2.05,2.04,0,1.13-.91,2.05-2.04,2.05-1.13,0-2.05-.91-2.05-2.04,0,0,0,0,0,0,0-1.13.91-2.05,2.04-2.05h0ZM79.6,8.19c1.13,0,2.05.91,2.05,2.04,0,1.13-.91,2.05-2.04,2.05s-2.05-.91-2.05-2.04c0,0,0,0,0,0,0-1.13.91-2.05,2.04-2.05,0,0,0,0,0,0ZM79.6,114.66c-1.13,0-2.05-.91-2.05-2.04,0-1.13.91-2.05,2.04-2.05s2.05.91,2.05,2.04c0,0,0,0,0,0,0,1.13-.91,2.05-2.04,2.05h0ZM100,94.19c-1.13,0-2.05-.91-2.05-2.04,0-1.13.91-2.05,2.04-2.05s2.05.91,2.05,2.04c0,0,0,0,0,0,0,1.13-.91,2.05-2.04,2.05,0,0,0,0,0,0h0ZM32.65,61.43c0-15.01,11.57-27.48,26.53-28.59v57.18c-14.96-1.12-26.54-13.58-26.53-28.59h0ZM116.33,63.48c-1.13,0-2.05-.91-2.05-2.04,0-1.13.91-2.05,2.04-2.05s2.05.91,2.05,2.04c0,0,0,0,0,0,0,1.13-.91,2.05-2.04,2.05,0,0,0,0,0,0h0Z"/>
        </g>
      </g>
    </g>
  </g>
</svg>